/* XPM */
static char *result[] = {
/* columns rows colors chars-per-pixel */
"64 64 94 2 ",
"   c #000000",
".  c #0E0E0E",
"X  c #151515",
"o  c gray10",
"O  c #1A2611",
"+  c #1E2D14",
"@  c #202E18",
"#  c #223218",
"$  c #273C1A",
"%  c #293E1B",
"&  c #2E3F22",
"*  c #2D421D",
"=  c #2F491E",
"-  c #2F4321",
";  c #314622",
":  c #334A23",
">  c #37452E",
",  c #374D28",
"<  c #3A4D2B",
"1  c #365124",
"2  c #395227",
"3  c #3C502E",
"4  c #3E5130",
"5  c #464F3F",
"6  c #425434",
"7  c #45553A",
"8  c #4A5C3E",
"9  c gray27",
"0  c gray30",
"q  c #4E5E44",
"w  c #555555",
"e  c #4F6142",
"r  c #536546",
"t  c #55634B",
"y  c #5A6C4D",
"u  c #5E6757",
"i  c #5B6952",
"p  c #5E6759",
"a  c #646262",
"s  c #676F61",
"d  c #6D6B6B",
"f  c #706F6F",
"g  c #677062",
"h  c #6D7567",
"j  c #747C6E",
"k  c #747373",
"l  c #7C7A7A",
"z  c #807F7F",
"x  c #858484",
"c  c #888787",
"v  c #8B8A8A",
"b  c #928F8F",
"n  c #949393",
"m  c #989595",
"M  c #9D9C9C",
"N  c #A19F9F",
"B  c #A4A3A3",
"V  c #A8A6A6",
"C  c #AAAAA7",
"Z  c #ACABAB",
"A  c #B1AFAF",
"S  c #B0B0AE",
"D  c #B4B4B3",
"F  c #B7B8B4",
"G  c #BBBDB7",
"H  c #BDBCBB",
"J  c #C0BFBF",
"K  c #B9C0B5",
"L  c #BEC0BC",
"P  c #C1C6BE",
"I  c #C4C3C3",
"U  c #C8C7C6",
"Y  c #C7C8C6",
"T  c #C8C8C7",
"R  c #CCCCCB",
"E  c #D0CFCF",
"W  c #CAD0C7",
"Q  c #CFD0CE",
"!  c #D0D1CF",
"~  c #D3D4D3",
"^  c #D8D7D7",
"/  c #D6D8D5",
"(  c #D9DBD7",
")  c #DCDCDC",
"_  c #DEE0DE",
"`  c #E0E1DF",
"'  c #E4E4E3",
"]  c #E7E8E6",
"[  c #E8EAE7",
"{  c #EBEBEB",
"}  c #F0EFEF",
"|  c #EFF0EF",
" . c #F3F3F3",
".. c #FEFEFE",
/* pixels */
"X     .     .   .       .   .       .   .       .   .       .   .       .   .       .   .       .   .       .   .       .   . X ",
".                                                                                                                             X ",
".                                                                                                                             X ",
".                                                                                                                             X ",
".                                                                                                                             X ",
".                                                                                                                             X ",
".                                                                                                                             X ",
".                                                                                                                             X ",
".                                                                                                                             X ",
".                                                                                                                             X ",
".                                                                                                                             X ",
".                                                                                                                             X ",
".                                                                                                                             X ",
".                                                                                                                             X ",
".                                                       R R R R D D T Y                                                       X ",
".                                                       ........' ' .. .                                                      X ",
".                                                   R R ........ . .{ { n v                                                   X ",
".                                                   ................` ) D Z                                                   X ",
".                                               T T ................' { Y J k f                                               X ",
".                                               ....................| { E T m v                                               X ",
".                                               ............ .......{ { ) ^ D V                                               X ",
".                                               .................... . .' ` E H                                               X ",
".                                       Z F Z Z }  . . ... ....... . . .{ { ) ^ D D F B                                       X ",
".                                        ... . .' ' ' ' .. ..... . . . . . .|  .......]                                       X ",
".                                   N Z  ... . .{ ] ] ] }  . . .| |  . .|  .|  ..... . .Z M                                   X ",
".                                   { ...... . .}  .{ { { { } } { {  .} { { |  . . . . ...'                                   X ",
".                                   | .. ...{ { } } ] ] ' { { { { { { { { { [ |  . . .| { ~                                   X ",
".                                   { .. . .) ) { } ' ' ' ' { { { { ' ' ] ] ' {  .|  .{ Y D                                   X ",
".                                   '  .{ { ) ) ] { ' ' ' ' ' ' { ' ' ' ' ' ' ' [ [ { ' I D                                   X ",
".                                   ^ ] ` ` ` ` ] ' ' ' ` ' ` ` ' ' ' ' _ ` ' ' _ _ _ ^ J Z                                   X ",
".                               M C ) ' ) ` ' ` ' ] ' ' ' ' ' ` ' ' _ _ ` ` ' ` ) ) _ ^ R I n x                               X ",
".                               { ..] ` ` ) ' ' ] ' ' ' ' ' ' ` ) ^ ^ ^ ' ' ' ` ^ ^ _ ) ) ) ) T                               X ",
".                           b N {  .' ' ' ' ' ' ] ] [ [ ] ` ` ` ^ ) ) ) ] ] ' ` ^ ) ) ) ) ) ' ~ N b                           X ",
".                           ] ..' ` ' ] { { [ ] ] ] { [ ] ] ` ` ^ ^ ` ` | | ` ` ` ) ) ) ) ` ' { ..'                           X ",
".                           ) | ' ' ' ' ] { ] ] ] [ [ [ ` ] ` _ ~ ~ ' ' ] ' ) ) ) ) ) ) ) ) ] { ..'                           X ",
".                           Z J ) ` ' ' ' ' ' ] } } ] [ [ [ / / ~ ~  .| Y Y ~ ~ ~ ~ ` ` ^ ) }  ...{                           X ",
".                           V F ^ ) ` ' ` ` ' ` { { ] [ ` ] ( ( ~ ~ { { ~ Q Q Q ~ ~ ) ) ~ ^ ' {  .`                           X ",
".                           x n H I ^ ) ~ ~ ~ ~ { { [ } W W [ [ ~ ~ ~ ( | ] Y Y R R R R T U I U ~ H                           X ",
".                       9 0 v m J J ) ' ( ^ ( / / / ( ( K K / ! L L Y P ) ) F G R R R R T T I I R J a w                       X ",
".                       m V N N A J ' { } [ | | e 8 7 6 6 6 e e 6 6 4 4 4 4 4 h R R R R R R I J J J R D                       X ",
".                       M C V V J J ` ' } } ) ^ r 8 6 6 6 6 8 8 2 2 4 4 4 4 7 g K L R R R R U I H J J C                       X ",
".                       V D J J J J ^ ^ } } u 0 y y 3 3 2 2 ; : 1 ; 1 1 , , 3 4 7 j ~ ~ E ~ ^ ~ D Z l k                       X ",
".                       M A H H J J E E } } i 8 t r < < 2 1 - ; = ; 1 1 , , 3 3 7 j Q Q R R ~ R D V x d                       X ",
".                       l c V A J A J I { } t 6 ; : : : = = ; ; * = = ; ; ; < 3 4 h Y Y I I I J C B l f                       X ",
".                       z x N V A D J J ] { t 6 : - : : * = ; = * = = = - - , > 3 h Y I I J I H Z B z f                       X ",
".                       d z c x B V A D E ~ 8 6 * - : : % * * % = * * $ * = * - 3 s H F D D F D D Z x k                       X ",
".                       a z z x N V A A E ~ q 6 - & : : * * * * * = * * * * * - < s H H S D F F D Z l d                       X ",
".                           d z b N J J ` ` q 6 : : , , : ; * % * - $ * * * * $ $ p F D C Z D A B n                           X ",
".                           d l n M F H ) _ q 4 ; ; > , : ; * * * * * % % * % % * u F D C Z D S B n                           X ",
".                           a d c b N V A A 7 < & ; ; ; % * $ $ % $ $ $ % % * * < u C C V B m M Z M                           X ",
".                           a f c v N B A A 7 < - - & ; * % $ $ $ $ $ % * % * * , p C C B B m M A M                           X ",
".                               b N z l b b > & # @ @ @ O O + + O O O O O + = ; * 9 l l z c B n                               X ",
".                               n M z l b n > & # # @ @ O O + # O O O O O + = = - 5 l l z c B m                               X ",
".                                                                                                                             X ",
".                                                                                                                             X ",
".                                                                                                                             X ",
".                                                                                                                             X ",
".                                                                                                                             X ",
".                                                                                                                             X ",
".                                                                                                                             X ",
".                                                                                                                             X ",
".                                                                                                                             X ",
".                                                                                                                             X ",
"X . . . . . . . . . . . . . . . . . . . . . . . . . . . . . . . . . . . . . . . . . . . . . . . . . . . . . . . . . . . . . . o "
};
