/* XPM */
static char *result[] = {
/* columns rows colors chars-per-pixel */
"64 64 245 2 ",
"   c #4B1C15",
".  c #51251E",
"X  c #5A2A26",
"o  c #4E332F",
"O  c #5E302B",
"+  c #642D29",
"@  c #76282A",
"#  c #62332C",
"$  c #6B3429",
"%  c #702D31",
"&  c #693A37",
"*  c #753836",
"=  c #75433C",
"-  c #7B453D",
";  c #7B3E43",
":  c #734240",
">  c #7D4A43",
",  c #724F4B",
"<  c #7D4E4B",
"1  c #883C3A",
"2  c #933630",
"3  c #85443E",
"4  c #893C44",
"5  c #864B46",
"6  c #834C45",
"7  c #97484F",
"8  c #865348",
"9  c #85524A",
"0  c #8B544B",
"q  c #8D594E",
"w  c #96564C",
"e  c #92594E",
"r  c #875452",
"t  c #8C5651",
"y  c #8D5B53",
"u  c #855B59",
"i  c #8D5E5A",
"p  c #935C53",
"a  c #9A5D55",
"s  c #945E59",
"d  c #AE554F",
"f  c #8C615A",
"g  c #946156",
"h  c #9A6257",
"j  c #95625B",
"k  c #9B645C",
"l  c #97685C",
"z  c #9E685E",
"x  c #A4655C",
"c  c #A5695E",
"v  c #9A5765",
"b  c #A45D6E",
"n  c #8C6664",
"m  c #946461",
"M  c #9C6662",
"N  c #966A65",
"B  c #9D6A63",
"V  c #9C6B6A",
"C  c #9D7475",
"Z  c #A16760",
"A  c #A36C64",
"S  c #AA6C64",
"D  c #A36E6A",
"F  c #B76A64",
"G  c #A57066",
"H  c #AA7166",
"J  c #A6716B",
"K  c #AB746C",
"L  c #AE786E",
"P  c #B1766D",
"I  c #BC776B",
"U  c #B2796E",
"Y  c #B1687D",
"T  c #A57472",
"R  c #AB7672",
"E  c #A57973",
"W  c #AD7A72",
"Q  c #A87678",
"!  c #A57C7C",
"~  c #AC7B7A",
"^  c #B37973",
"/  c #B37C73",
"(  c #B97E74",
")  c #B27E7A",
"_  c #C95D51",
"`  c #CC705D",
"'  c #D77A66",
"]  c #C97A73",
"[  c #AA8376",
"{  c #AC837C",
"}  c #B58176",
"|  c #BA8176",
" . c #B5827A",
".. c #BB847B",
"X. c #B5897B",
"o. c #BE887E",
"O. c #DE8563",
"+. c #C2867D",
"@. c #C98478",
"#. c #C28A7E",
"$. c #D2887C",
"%. c #E18974",
"&. c #AE7E80",
"*. c #B87C83",
"=. c #B47595",
"-. c #AD8482",
";. c #AB8887",
":. c #A98F8E",
">. c #B48483",
",. c #BB8681",
"<. c #B58A84",
"1. c #BD8A82",
"2. c #B78989",
"3. c #BC8B8A",
"4. c #BB938A",
"5. c #BD938B",
"6. c #B49494",
"7. c #BC9392",
"8. c #BB9A99",
"9. c #BAA5A3",
"0. c #C38C83",
"q. c #CA8E84",
"w. c #C78989",
"e. c #C38E8A",
"r. c #D68E8A",
"t. c #C69186",
"y. c #C99286",
"u. c #C5928A",
"i. c #CB958B",
"p. c #C3988F",
"a. c #CD988D",
"s. c #D1968B",
"d. c #D89488",
"f. c #D2998D",
"g. c #C38B93",
"h. c #C49493",
"j. c #CB9691",
"k. c #C59A93",
"l. c #CC9A92",
"z. c #C79A9B",
"x. c #D49C93",
"c. c #D99D93",
"v. c #D49A98",
"b. c #E89888",
"n. c #F39B8B",
"m. c #F69F91",
"M. c #CAA49B",
"N. c #D5A097",
"B. c #DCA197",
"V. c #D3A39A",
"C. c #DCA39B",
"Z. c #D5A99D",
"A. c #E2A69C",
"S. c #E6A89C",
"D. c #FDA394",
"F. c #F7A799",
"G. c #FEAB9C",
"H. c #FEB09E",
"J. c #D99CA1",
"K. c #E39BA1",
"L. c #C5A5A4",
"P. c #CAA9A6",
"I. c #D4AAA3",
"U. c #D7A8A5",
"Y. c #DCABA3",
"T. c #D4ACAB",
"R. c #D7B4A9",
"E. c #CCB3B3",
"W. c #D3B4B4",
"Q. c #DCBCB3",
"!. c #D6BCBB",
"~. c #E5ABA4",
"^. c #F6AEA2",
"/. c #E7B6AA",
"(. c #E4B4AD",
"). c #FEB3A4",
"_. c #F9B6AA",
"`. c #FFBCAD",
"'. c #E1A6B3",
"]. c #F9AEB5",
"[. c #FFAEBA",
"{. c #E8B7B6",
"}. c #E4BDB2",
"|. c #EBBCB3",
" X c #F5B9B6",
".X c #FEBEB1",
"XX c #FEB3BD",
"oX c #D7C1BF",
"OX c #FAC8A7",
"+X c #E2C2B6",
"@X c #EEC3BB",
"#X c #E9C7BC",
"$X c #E5C8BE",
"%X c #F4C2B5",
"&X c #FEC2B5",
"*X c #F3C4BC",
"=X c #FFC6B9",
"-X c #F4C9BD",
";X c #FCCABE",
":X c #FDD5BD",
">X c #FFB4C1",
",X c #FEB9C6",
"<X c #DCC3C3",
"1X c #DCC9C8",
"2X c #E7C9C8",
"3X c #F4C4C1",
"4X c #F5CCC2",
"5X c #FBCDC2",
"6X c #F9CDCA",
"7X c #ECD2C4",
"8X c #EDD4CA",
"9X c #EDD8CB",
"0X c #F4D2C5",
"qX c #FCD2C5",
"wX c #FFD8C7",
"eX c #F3D6CB",
"rX c #FCD4C9",
"tX c #F3DACC",
"yX c #FEDACC",
"uX c #F3CDD4",
"iX c #ECD4D4",
"pX c #EADAD9",
"aX c #F8D3D7",
"sX c #F5DDD3",
"dX c #FDDDD1",
"fX c #F5DBDB",
"gX c #FDDBDD",
"hX c #F6E0D1",
"jX c #F6E2D4",
"kX c #FEE3D5",
"lX c #FEE6DA",
"zX c #FEEBDD",
"xX c #FFF0DF",
"cX c #EFE6E4",
"vX c #F5E7E7",
"bX c #FBE5E5",
"nX c #FFEEE1",
"mX c #FEE6E9",
"MX c #FDEBEB",
"NX c #FFF3E4",
"BX c #FFF5E9",
"VX c #FFEFF1",
"CX c #FDF3F3",
"ZX c #FEF8F5",
"AX c #FFFCFC",
/* pixels */
"mXmXmXmXmXmXmXMXMXbX2X!.T.L.I.W.<XiXmXCXBXVXCXVXMXvX<XM.h.h.u.,.0.,.,.,.o.....1.o.o.1.p.(.{.(.T.z.J.'.[.>X>XaXgXgXgX,X>X>X>X[.[.",
"mXmXmXmXmXMXbXoXT.k.u.k.p.p.i.h.h.<.5.L.!.pXvX2XT.2.2.h.l.0.1.o.......|  .| | ..| | } ..0.0.v.Y.{.{.(.J.J.].XXXX>X>X>X>X[.[.[.[.",
"mXmXmXmXfXP.5.u.u.t.t.t.t.t.w.e.t.t.u.5.3.<.1.1.0.,.1.e.c.i.0.#.o.....1.1.0.0.o.| ^ o...| 0.l.i.| ~ ) g.U.j.v.].XX>XXX[.[.[.[.[.",
"mXmXmX<X9.I.a.i.u.t.t.t.t.t.0.t.t.0.4.1.0.e.u.0.0.0.,.| ..+...#.0.0.o.0.0.i.u.0.o.0.o./ o.x.u.0.0...J R Q 1.v...j.r.g.w.w.w.r.K.",
"aXmX!.T.U.l.y.t.t.t.y.#.t.t.0.0.1...u.l.a.l.V.v.0.0.( +.+.+.0.i.N.N.o.o.1.1.0.o.1.N.i.o.../ 0.1.,.0.0.>./  .o.u.l.l.l.a.h.i.e...",
",X{.T.U.l.y.t.t.t.t.y.t.t.t.1. . .i.l.l.V.V.V.v.s.+.s.q.+.0.0.0.t.N.u.x.0.0.a.V.} 0.t.1.1.o./ o.o.0.0.y.1.^ } ..0.i.a.y.u.u.t.u.",
"'.T.U.l.i.u.y.u.t.t.t.t.u.o... .o.0.e.l.V.V.c.i.d.c.q.w.i.0.0.o.0.y.i.v.i.i.N.C.1...o.o.o.0.} o.,.0.y.l.V.u.K } / ..i.y.u.t.t.0.",
"T.U.j.i.y.y.y.u.t.y.u.t.o...../  .1.0.l.Z.l.+.v.q.q.c.c.q.t.| | 1.0.t.t.u.y.u.u.0.0.1...o.o.o./ 0.0.u.V.N.a...G | | t.a.y.t.t.t.",
"I.a.a.i.i.i.y.i.i.a.a.#.X.| ..L ,.o.0.l.0.W >.0.c.S.B.q.q.#./ y.i.i.i.y.u.y.i.u.e.0.0.o.( 0.0.) u.v.k.a.x.e.0.L H o.| t.i.y.y.t.",
"a.i.s.a.i.a.a.a.x.x.y.o.X.o.K } ..o.1.o.L ....x.Y.v.q.w.s.H c.i.a.i.l.i.y.y.i.u.e.0.o.c.o.0.,.w.W V.V.p.3.0.0.0.G ....| #.a.y.y.",
"i.a.f.a.f.f.x.x.N.a.o.| ..W J o...,...W  ./ o.y.y.0...v.^ 0.A.s.s.i.i.i.i.i.i.u.u.w...C.s.o.o.y...u.M.k.>.2.,.1.U K } ..#.i.y.y.",
"u.a.x.f.f.f.c.c.a.o.X.| ) B  .o.o...K / W / | 0.+.^ c.( H S.B.c.c.i.i.c.v.f.i.j.u.i.0.A.c.o.>.1.z.! 8.pXpX8.,.,...z } | t.a.a.y.",
"y.a.N.a.a.f.f.x.0.} } / D W o...o.K ^ R /  ...| J y.,.a q.~.A.S.f.s.i.C.B.C.f.v.h.z.4.p.h.h.8.E.oX1XcXAXAX2X>.,.o.D ^ | o.i.f.a.",
"i.a.a.u.y.a.f.#./ / / J K o.o.,.R W ) ^ } } } A | | Z L q.A.A.A.c.i.c.c.y.A.C.z.fXZXcXpXvXZXAXAXZXAXAXAXAXE.-.,.o./ c / | 0.f.f.",
"a.a.t.#.y.a.o.} / / J W 1.0.1. .R ../ } W W G J / A p o.0.A.c.c.c.i.B.0...c.Y.M.fXCXAXAXZXBXvXvXjXfXpXvXCXMXz.>...#.k ^ / ..f.v.",
"u.#.4.y.y.o...} / K / u.u.i.,.R ,...0.L K G B } B q j / ,.q.0.i.c.c.q.....0.v.2.L.MXCXiXE.L.8.;.-.~ ~ 6.2XiX8.,.| o.| Z U / +.x.",
"4.#.y.y.t.../ L J  .l.i.l.i.K ,.>.i.) R J p W D y # R R / } ( q.c.0./ /  ...u.C W.bXfX6.N G V B J L E ! 6.P.2.,. .,.i.D L ^ ( 0.",
"o.t.u.y.o./ L H W a.i.a.l. . .>.e.w.) W p J K y + r K K W W U ..0.U ^ L ^ } 1.V C 6.:.C j A B m V C { 8.ZXAXpX>.,.,.0.e.H ^ ( ( ",
"t.u.a.#.} L K G u.u.u.l.1.J >. .3.h.,.B j ~ l : ; J D K K P K U ^ K K L K U / < f 1XZXpX9.P.!.1XpXcXZXAXAXZXiX-.1.1.1.i.^ L L ^ ",
"u.a.t.U P J A 1.1...1.u.J  .G >.2.z.,.r W D > W t K K K J K K K L L K H G K W O N fXZXAXAXAXAXAXAXAXAXAXAXAXcX6.1.u.u.i.e.Z P P ",
"u.#.| U G B } .. ...e. .l M R ) g.h.s m ) r >.3.J J J K J K K K J K K H S D H & & 6.MXAXCXMXvXvXcXfXuXiXpXVXZXuX>.u.i.j.i.S J P ",
"o./ ^ A c W W } / ,.1.B A B T Q g.Q r R D r 3XT ) J K J K H J K H K K J D D s ~ , 6.VXCXgX!.L.7.&.C C ~ &.P.2XE.>.u.l.j.l.,.s P ",
"U W V B / / / } } o.W M k D T Q 2.r 9 T t z.3XT ) R J J H K H J S K K J H R r T.&.&.fXfXW.m ) D C m D ,.&.v -.3.0.0.l.i.i.e.R p ",
"V { Q. ./ W } L / ) M k l A D ~ V : N J f 3X{.V ^ Q J J H H H D S D K J Q R < {.E.& ;.7.2.k R >.&.m V 2.3.V R ,.....y.u.u.1...Z ",
"W.bXL./ ^ / / / / K l j z z A D 6 O T j z.6XY.V *.R T K K S D S D J J J *.Q i 6X6Xn Q g.z.M M 0.3.Q m &.3.D D | ) | 0.0.,. ...R ",
"MXjX~ W L ^ / W L D l l z h k p & < Q s *X4XU.V 2.) R R K J J D R D T R g.R Q 6X6X8.n 7.z.D k W 2.2.m T ,.Q p ) / } | ..| | / ( ",
"MXW.~ ^ U U ^ R R s s l k p l 9 = j J 3.;X5Xk.f 3.~ ) >.R J T D &.Q ~ ~ v.V 7.6X6X3Xu 2.7.n i v Q 3.M V &.R p ^ / ) ( } | ) / / ",
"mX;.W L L ^ U L J p p Z k p p * ~ D B (.qX5X<.i 2.T ) w.T ) ) Q g.g.&.&.z.N Y.0X6X6X-.-.2.n < t Z T m M T M s J / / / / / / / / ",
"iXQ ^ L L L R K M p s A p a t V e.J ~ 0XdX5XE u ^ D ~ W &.z.g.T 2.*.Q R 2.i @XdX0X6XT.T ;.n O r s A k D B M s D / / ^ / / / / ^ ",
"L.) P L K L R H k 8 k A p l - C. .R k.dXdX3Xl u R A J G &.z.3.T *.W R T &.v 6XdXrX6X3XT >.< X 9 r v j B D M s A W ^ L / / / L / ",
"*.^ P P P L K H p 0 A k p k s  XV E }.lXdX-Xu i W A J K ~ 3.&.R ) / L R Q &.dXlXyX4X6X3.>.u V * 6 B B M R A k k / W U / / W W U ",
"*.^ P R P K H A 0 p A p s t v.{.G E sXlXyX|.9 j ^ K L L Q ) ) ~  .} A Q W M.lXlXkX6X5XM.>.m U.+ 6 D K B J K k j ^ R W L ^ U L / ",
"o.^ P L L K G c 8 k z p k y  X(.L J M.5.4.u.- l } K W } W W / [  .W A ^ G }.+X}.|.~.Y.V.>.V  Xf > M W B E L A j W K L R L L L ^ ",
"( ^ ^ P K G G z 6 D h e k ) qXY.[ 4.+X+X+XZ.< l [ }  .X.[  . . . .K J ) E }.I.v.z.u. .W  .E ;Xz.= t ^ V V W K l W D L ^ ^ L L W ",
"^ H / U K H z g 6 A p p 0 Y.qXC.[ Q.zXzXkX-Xq l L [  . . .} } } ..h W  .4.lXlXlXlXlXqX|.{ [ @X@X< < R G B R W k L A P L L L K / ",
"K S | U K K z g 0 G p g B qXrXA.} $XzXxXzX-Xg g L L  . .} } } } } p / D Q.zXzXzXzXzXyX-X .p.4XqX>.> D J j W W y R A L L W L K } ",
"J A ( / K K z g g c p g y.kX:XY.W 7XnXNXzX;Xl y U H  .X.} } } X.^ p  .m sXzXzXNXxXzXkX5XX.M.0X4X/.> l K s R J r L A L U L L K | ",
"S A ( ( H H h p z l e p #XlX0X/.W 9XzXxXzX0XK 0 } G ..X.} } } X.G p / { nXnXxXzXzXnXlX6X{ Q.yX4X4Xj p K q W D y D J L L L ^ K ..",
"S A ( ( H U g p z l p L kXlXwX#X[ 9XxXNXxXwXo.8 ..A |  .| X.X.| l k A R.nXzXxXnXnXzXzX0X{ 7XkX4X5Xu.9 L 9 R B k c K L ^ ^ L K | ",
"B A ^ ( } } e p c g g Z.lXxXhX#X4.9XzXxXxXkXa.- | z } ..X.X.| | 0 S j 8XNXNXnXNXnXnXnXyX[ sXzXrX-X|.> K 6 K l l k L L / / ^ H | ",
"z H U U | | e a x h g 4XnXNXzXtXR.$XhX9X:X9XR.- | x | | | o.X.@.5 S R zXNXNXnXzXjXlXnXsXX.zXzXjX4X;XA G 6 J k Z A K ( ) ( ^ J ( ",
"h L P L | | 0 h c h W jXxXzXxXhX#X9XxXxXzX7XZ.3 | S I | | #.@.| 3 S P.NXjXoX2X8XlXzXzX9X8.zXzXlXqX;Xp.x 8 A p M K R ( ( / ( L ( ",
"h K L K | | w h h k Z.zXzX$X4.G z [ Z.tXxXxXhX[ | P H | @.#.#.} w S sXNX9XlXnXNXNXNXzX9X+XzXzXzXyX5X|.z e p p h P / | ../ ^ S / ",
"h L P P ( | w x g l +XtXk.3 e - - = $ f +XzXzXa.@.F S | | #.$.H x 4.nXNXNXNXlX#X7.X.R B <.#XzXzXkX0X;XL g w p c / | ..( ( ^ H | ",
"h P U ^ U ( h S a A -X5.O % % * < :.9.+ q #XzX+XY.P x I @.$.$.S x 2XNXNXnXeXV.q h p > & + * [ #XkXqX;Xa.h w 0 ^ | | ( ( ( K H o.",
"h U ( / ^ / S c a P z.. , &.% 4 % W.2X; $ X.zXkX-X#.I I @.q.] @.1.zXNXNXsX<.* % * L.pXu + O $ f |.wX;X/.h w a ..| / I U ^ H K +.",
"g U / | P / I S a x & o !.9.4 2 % =.=.x 3 R.tXxX0X/.d.F @.%.$.s.7XBXBXNX+X<.1 2 @ &.2Xv 4 + X X B -X-X-XH 5 K ..L U ( U ^ A ^ +.",
"g L } | U ^ @.x w -   :.BX1Xd 7 2 4 Y ] S zXBXBXlXkXY.A.@.B._.Y.nXBXBXBXBX2XF d @ v =.b 4 % -.: . 1.5X%X0.8 } | H U U ^ U S ^ 0.",
"y G ....| H #.H w p > I.BX9.F ' ' ' ' ] Z.xXNXBXNXnX4X4XS.%X5XjXBXBXNXBXBXP.` _ 2 v =.w.7 3 E.L.  O +X:Xi.B X.U H } U U K H | #.",
"f B ....| H | I H +XjXjX9X8X}.|.;X:X:X:XxXNXNXNXBXNXzXlXkXzXzXNXNXBXNXBXBX7Xy.%.O.' ` @._ e 9XpX,   N 5XG } | A U U ( U c P #.U ",
"l g ..o.o.U } @.z eXxXNXnXnXzXlXzXzXzXzXxXNXNXNXNXBXBXNXNXBXBXBXNXNXNXNXBXNXzXyX:XOXOX%.$.X.jX8Xl + + X.L ..L P | | U U h U #.z ",
"j j ..#.#.| H @.H tXxXzXlXdXyXyXkXkXlXzXzXxXlXlXBXBXvXlXNXBXNXNXBXNXNXNXNXxXNXNXxXxXxXxXxXjX9XjX0X+X#XK +...H | | U | c S | y.8 ",
"A ^ | 0.0.#.U H #.R.kXyXqX;X&X=X;XwXkXzXzXNXa.Z.|.#X8XfXtXeX7XP.+XxXzXzXzXzXlXlXzXlXkXlXlXzXnXNXNXzXQ.1.0.K | ..| | } h L ..} 8 ",
"R 0.} 0.#.y.| a P 4.-X;X`._.).).`.;XyXkXNXtX$.F.S.F.F.^.^.~.:X%X$.0XzXzXlXkXdXdXwXwXqXwXyXkXlXzXnXeXu.0.P ^ +.......U x U #.h w ",
"} o.D t.y.$.#.H h | q._.).G.G.G.`.;XyXkXNXR.b.n.D.H.).`.`.).F.m.n.c.zXlXkXdXrX5X=X&X&X=X;XrXyXlXsXk.u. .L #...o...| c H ..#.0 w ",
"1.B p 1.s.i.i.+.H }.| q.^.G.).).&XqXkXlXNXY.b.D.`.`.`.&X`.`.).F.n.d.nXlXdXrX5X.X`.).).H._.=X5X6Xl.u.| H +.0.#.#.+.| h | #.L e e ",
"t.j 9 K a.s.a.$.H -X;XC.c.^.`.`.;XyXkXzXNX}.n.H.`.&X`..X`.&X`.).D.b.nXkXdXrX=X.X).G.D.D.D.)..Xj.s.G h +.y.#.#.#...z P +.#.8 p e ",
"p.j = 9 y.a.f.f.#.p.rX5X=X&X;X;XwXkXzXzXBXjXA.`.`.`..X`.`.`.`.`.^.Y.NXzXlXyX5X=X_.G.D.D.D.m.q.] I 3 | y.i.y.t.#.| 8 X.#.X.e e e ",
"u.B = 8 / f.i.s.f.} :XrXwX:XwXwXkXzXzXNXNXNXtX~.`.`.`.`.`.`.OX&X~.jXBXnXlXkXyX5X&X`.).F.b.] ] A.S.c #.f.s.#.#.y.q A X.t.#.8 e e ",
"R  .- p y a.c.y.f.i.V.kXkXkXkXlXzXxXNXBXBXNXNXlX#XOX&X`.`.&X/.%XlXNXNXzXnXlXkXyX:X&X`.F.^.)..X.X( #.s.s.y.s.y.[ O X.#.X.V.e e e ",
"j 4.8 y q J c.f.s.c.u.tXzXzXzXxXNXNXNXNXBXNXxXxXNXzXlXyXtXkXzXxXNXNXNXNXnXnXzXkXyXqX;X=X&X&XOX^.( d.i.i.i.s.#.= y 4.o.V.X.e e e ",
"6  .l q y g 0.c.s.c.N.M.lXNXNXBXNXBXNXBXNXxXNXNXNXxXxXNXxXxXxXBXBXBXBXBXBXNXnXlXkXkXyXqX:X:X:X#.y.d.f.f.i.i.H g X.u.X.x.e e e q ",
"6 y / q y q | 0.s.@.c.C.I.zXNXNXNXNXNXBXNXxXxXNXNXxXNXNXNXBXBXNXBXBXBXBXBXBXNXnXzXkXkXkXyXyXY.#.$.f.f.a.a.L ..p t.X.a.g e e e e ",
"q y G y y p 9 i.| / } x.V.R.zXBXBXNXBXNXNXNXNXxXxXNXNXxXxXNXBXNXBXNXNXNXBXBXBXNXNXzXzXzXzX}.#.f.f.f.f.f.U N.P / 4.l y p e e q e "
};
