/* XPM */
static char *result[] = {
/* columns rows colors chars-per-pixel */
"64 64 230 2 ",
"   c #2F2827",
".  c #372A28",
"X  c #34302E",
"o  c #39343C",
"O  c #4B312F",
"+  c #4E413E",
"@  c #34324B",
"#  c #222A5B",
"$  c #2C2E5D",
"%  c #2D305E",
"&  c #2A2F64",
"*  c #2E3263",
"=  c #2F3669",
"-  c #313565",
";  c #373865",
":  c #31376A",
">  c #33396D",
",  c #3A3B6B",
"<  c #363B71",
"1  c #3B3D72",
"2  c #453D49",
"3  c #463C55",
"4  c #703F41",
"5  c #413E69",
"6  c #3D406F",
"7  c #3F4271",
"8  c #514748",
"9  c #4D445A",
"0  c #564657",
"q  c #6E4F4E",
"w  c #675855",
"e  c #735C53",
"r  c #79665B",
"t  c #48436A",
"y  c #564967",
"u  c #5D536B",
"i  c #424573",
"p  c #494977",
"a  c #534C76",
"s  c #584E76",
"d  c #5B4F78",
"f  c #5C5476",
"g  c #56517C",
"h  c #5C527A",
"j  c #63566C",
"k  c #6D566E",
"l  c #62557D",
"z  c #675978",
"x  c #75656E",
"c  c #84685D",
"v  c #95685E",
"b  c #8C746A",
"n  c #A3796F",
"m  c #998176",
"M  c #5A5584",
"N  c #57598C",
"B  c #5A5988",
"V  c #645B83",
"C  c #665B86",
"Z  c #6C5D83",
"A  c #6C6488",
"S  c #716186",
"D  c #75648B",
"F  c #79668B",
"G  c #7A6A8C",
"H  c #676597",
"J  c #63659B",
"K  c #756892",
"L  c #7C6B94",
"P  c #7D6D9B",
"I  c #7D719B",
"U  c #676AA1",
"Y  c #7B76A6",
"T  c #88788A",
"R  c #837394",
"E  c #83739B",
"W  c #8B7799",
"Q  c #847998",
"!  c #8A7C9C",
"~  c #8779A3",
"^  c #837AAC",
"/  c #897AAA",
"(  c #907FA8",
")  c #897DB6",
"_  c #978A93",
"`  c #B0948E",
"'  c #A89899",
"]  c #BCA08F",
"[  c #BAA39B",
"{  c #8D82A6",
"}  c #9687A6",
"|  c #968AAB",
" . c #9B8BAB",
".. c #9F91A8",
"X. c #8C82BE",
"o. c #988AB7",
"O. c #9E91B4",
"+. c #A596AB",
"@. c #A995AB",
"#. c #A394B4",
"$. c #AB9BB5",
"%. c #A598B9",
"&. c #AB9BBC",
"*. c #B19FB9",
"=. c #BAA6A9",
"-. c #B3A8AF",
";. c #AFA2BE",
":. c #B3A3BE",
">. c #B7A8B9",
",. c #C7998B",
"<. c #CB9F93",
"1. c #C8A499",
"2. c #D7A597",
"3. c #DEA99C",
"4. c #E2AC9D",
"5. c #C5ABA8",
"6. c #D2AFA7",
"7. c #C8B5AA",
"8. c #D9B8AC",
"9. c #C2ADB7",
"0. c #CAB6B7",
"q. c #D8BBB5",
"w. c #D3BBBC",
"e. c #E4B6A8",
"r. c #E2B8AB",
"t. c #D8C2B9",
"y. c #E5C5B9",
"u. c #EDCABD",
"i. c #F1C9B9",
"p. c #9B8CC7",
"a. c #A598C2",
"s. c #A594D9",
"d. c #AFA2C6",
"f. c #B4A4C3",
"g. c #B7A7C7",
"h. c #BAAAC4",
"j. c #BDACCB",
"k. c #BDB1C8",
"l. c #B9AAD8",
"z. c #AE99E4",
"x. c #B9A6EB",
"c. c #C1ADC1",
"v. c #C2AECE",
"b. c #C6B6C6",
"n. c #C3B3CD",
"m. c #CBBBCC",
"M. c #D2BDC7",
"N. c #C3AED1",
"B. c #C4B4D2",
"V. c #C8B6D3",
"C. c #C6B9D3",
"Z. c #CBBBD5",
"A. c #C7B6DA",
"S. c #CDBDDA",
"D. c #D1BED6",
"F. c #D2BEDC",
"G. c #C7B6EB",
"H. c #CCB7EC",
"J. c #DCC4C3",
"K. c #D6C4C9",
"L. c #DDCACC",
"P. c #DFD2C9",
"I. c #CFC1D5",
"U. c #CEC1DA",
"Y. c #D7C6D7",
"T. c #D3C3DC",
"R. c #DBCBDD",
"E. c #DED3D5",
"W. c #EDCDC3",
"Q. c #E3CAC8",
"!. c #F1CEC3",
"~. c #E6D5CC",
"^. c #EDD4CD",
"/. c #F4D3C7",
"(. c #F4D4CC",
"). c #E1CDD8",
"_. c #E8D8D5",
"`. c #F7D6D1",
"'. c #F7D9D5",
"]. c #F5DAD4",
"[. c #F9DAD5",
"{. c #FADDDA",
"}. c #E3E1DA",
"|. c #F4E4DB",
" X c #F7E7DC",
".X c #FAE3DE",
"XX c #D5C5E2",
"oX c #D7C7E5",
"OX c #D9C5E1",
"+X c #DBCBE4",
"@X c #DECEE9",
"#X c #DED1E5",
"$X c #DFD0EA",
"%X c #D1C6F2",
"&X c #E1CEE6",
"*X c #E1CEE9",
"=X c #E2D3E5",
"-X c #E7D8E7",
";X c #E3D3EC",
":X c #E6DAEC",
">X c #E9DAED",
",X c #E0CFF7",
"<X c #E6D6F1",
"1X c #E9D7F2",
"2X c #E7D8F1",
"3X c #ECDCF3",
"4X c #EEDFF9",
"5X c #F0DFF4",
"6X c #ECE7E1",
"7X c #EAE2EE",
"8X c #F4E6E4",
"9X c #FAE3E0",
"0X c #FBEDE4",
"qX c #FAEFE9",
"wX c #FBF0E6",
"eX c #FBF2EA",
"rX c #EFE1F5",
"tX c #EFE8F2",
"yX c #EFE1F8",
"uX c #F1E3F6",
"iX c #F3EAF6",
"pX c #F3E5FA",
"aX c #F6EBFD",
"sX c #F9ECFE",
"dX c #F4F2F0",
"fX c #FDF6F2",
"gX c #FDF9F3",
"hX c #F6F2FA",
"jX c #FCF4FE",
"kX c #FDFAFD",
/* pixels */
"% % % % $ % $ % % * % - - % - - - - ; ; * : - * * * * : $ A 2XyX2XA = = : = = = = = = = = = = = * - , - - % % - > 6 = = = > > > ",
"$ % % $ * % % % $ $ % % - - ; - - 1 : - - : : - - - : > = * | 3X4XC.: = : - = ; * * * * M B V h 5 > * ; > % - ; > = > = : = = > ",
"% $ $ % * % % * - $ % - * * - * * : = * * > > - - - - : : = * L O.2Xa.s h A ! { #...Q ;.T.T.B.n.Z.B.#.A f p i , > : : = = * = = ",
"- 6 % % ; - * * - - - p 7 * * & # # # # # , - p , , , ; : : A $.f.#X:XU.V.:XuXrX-X+X+X@X+XR.;X2X2X3X3X:X;XoXS.Z.B.k.:.;.;.| { L ",
"- - % - % $ % % % % ; a a f K I {  .:.g.U.@X@X<X;X:X<X*XXX$X4XpX1XZ.f.a.A.pX;X3XrX;XoXXXN.j.XXpXaXsXsXaXaXaXaXaXaXaXaXaXtXpXyXyX",
"$ $ % 5 f V ! $.;.k.U.:X>XaXkXkXjXjXjXjXaXaXaXaXaXaXpX5X4X3X;X*X;X1X5XaXsXpXrX:X+XuXsXyX;X$XS.B.;XpXsXaXaXaXaXaXaXaXhXaXaXhXaXhX",
"# $ 5 l ! | Z.rXjXkXkXjXjXhXjXaXaXhXhXaXaXaXaXjXaXsXaX5X*X;X@X4XaXaX4XaXaXpXaXaXT.;XaXsXrX:X@Xk.j.;XaXaXaXaXaXaXhXaXhXaXaXaXaXaX",
"#.n.=XuXaXaXaXaXaXaXaXaXaXaXaXaXaXaXaXaXaXaXaXaXaXaX1XOX<X;XrXaXpXpXaXaXaXyXpXaXiXoX;XaXaXhXyXyXj.&.+XaXsXaXaXaXaXaXaXaXaXaXaXpX",
"S.jXsXaXiXhXaXpXiX>X:XpXiXaXaXjXaXjXaXaXaX3X3XaXpX2XOX5X4XaXaX5X1X5XaXaXpX2XpXpXsXuXXX3XhXaXaXaXaX@XO.XX1XsX3X;X$XXXC.C.-XiXhXaX",
"} jXaXhXhXhXhXjXjXrX#XiXiXyX=X#XY.+XT.T.$X2XrXkXY.R.4XaXaXaXaX+XT.pXsXsX2X2XaXaXaXaX3X1XaXaXaXaXaXaXY.$.g.5XsXpXyX@XT.#XkXiXjXkX",
"z j.hXjXhXhXhXaXrX:XrXjXjXkXjXjXhXhXiX:X:XsXjX#XiXiX-XjXsXaXpXC.S.aXaXsXoXrXpXaXaXaXjX@XyXaXaXjXsXsXaXj.&.Z.pXsXaX3XT.$X2X:XjXkX",
"- : 3XhXkXjXjXE.>.R.sXjXjXjXjXkX7XtXkXjXI.7XuX-XtX=X7XkXkXjXpXB.V.aXaX5XXXsXjXjXjXjXkX3X#XjXjXkXkXkXkX-XV.B.oXsXaXaXS.n.@X=XjXjX",
"= > ..kXkXjXjXkXhX>XaXaXaX:XiXjX:X3XjXiXb.iXR.jXC.C.jXkXkXkXiXj.S.kXkXoX<XjXjXkXjXkXjXiXj.R.kXjXkXkXkXkXiXS.Z.;XpXsX3X+Xn.&XsXaX",
"- : p R.jXjXjXhX7X;XjXiXrX;XsXrX#X>XT.m.>XI.pX>X=XuXaXjXjXsX3Xg.S.sXaXF.uXuXaXaXaXaXaXyXg.{ jXaXaXaXaXjXkXT.<XB.:XsXaXuX:.+XiXiX",
": , > +.jXjXjXkXjX3X:XY.+XrXiX-XR.XX>.+X#X>XaXS.pXaXaXaXaXaX>Xj.T.sX;X+XpXpXaXaXaXaXsXyXA. .:XaXaXaXaXaXaX+X5X;XOXpXsXsXOXY.aXrX",
": : = - C.:XjXkXkX#X>Xm.C.pXtXT.Y.h.iXiX+XjX3XZ.aXaXaXaXaXaX2XB.T.pXZ.pXpXaXaXpXyXpXpX2XU.f.U.sXaXaXaXaXaX>X=XsX1X;XsXaX1XI.jXI.",
": : > = , | iXkXjXhXhX7X$XrXY.U.oXI.jX7XpXjXV.;XsXaXpXaXpXpX3XXXoX4XB.pX4XaX1X:X<X@X@X;XV.a.S.pXaXrX2X@XoXXXB.sXsX*XpXsXpXOXC.T.",
": : = ; = * d.kXjXjXaXjXiXm.R.oX<XaX1X*XpX@Xf.pXaXaX4X5X3X3X3XoX@X*XB.<X1XaX1X2X<X<X<X<X:.| XX3XpX2X+XXXXXoXf.aXaX3XpXsXpX4XS.;X",
": : = = = = ; C.hXjXaXaXyX;X3X3X3XaX+X*X1X .B.1X3X1X;X5X3X3X3XT.XX@XS.1X5XpX4XpX3XpXsXrXR x *X1XyX3X4X<X;X*XB.:XaXpXpXpXaXpXpXuX",
": - = = = = = K A.jXaXiXiXrXpX3XpXaX@X*X;XE OX1X1X1X<X4XpX5X4XXXF.;XXX5XpXpXpXpX5XaXsXaXz j *X<XyXyX<X4X5X4XXXoXpXaX4XaXaXpXaXaX",
"> = = = = = = 6 g #XhXpXpXpXpX4XaX5X*X*X;XE *X4X5X5X;XaXsXsXsX+XoX@X;XpXpXuXuXuX3XaXaXiXn ` U.:X3X2X<X<X2X3X@XU.pXaXaXpXsXyXaXaX",
"= = > = 6 = > > > M +XaXpXpXoX<XpX*X*X1XoXK =XsXsXsX*XaXsXsXsX5X>XS.rXpXuXrXuX5XrXpXaXaX<.4.Z.2X<X<X;X<X<X<X<Xn.3XaXpXpXsXyXyXaX",
"> > > > 6 = > M Y > z Z.-XpXB.<X<X*XpXsXF.z D.sXsXsXR.uXsXpXsXsXuXv.rXpXpX3XrX3X3X-XpXaX6.4.M.<X;X;X$X$X<X<X<XB.3XrXpXrXsXpX3XaX",
"> > > > = = = = : : $.#.n.<XZ.<X*X;XsXsXv.0 9.sXaXsXT.D.jXsXsXsXiXh.2X3XpX2X3X3X3X;X+XsXM.2.r.;X<X;X;X@X@X<X;XB.2XyXrXrXsXpX2XpX",
"> > > > < > > > > < a.G.*X*X@X3X<X3XsXsX*.,.1.jXaXaX;X+.kXsXsXaXsXb.+X3XpX=X3X4X4X1XXXaXM.` 4.M.@X@X*XoXF.;X;XS.2XuXuX3XsXuX;XpX",
"> > > > = < > = > < h.G.:X@X3XaXaX3XsXsX6.i.1.rXpXuX:X[ _.sXaXsXaX-XF.4X3X+X3X3X4X3X;X>X_.1.e.6.OXR.OXS.V.;X*XT.2X3X3X3XsX3X;XpX",
"> > > > > > > > < g j.oX3X+XaXaXpX5XsXpXt. Xy.I.3X>X;X9.9.iXsXaXaXsXY.1X3XF.1X3X3X3XrXB.-XK.e.e.w.&X2XR.v.D.*XXX2X3XuXpXaX1X;XaX",
"> > > < > > > > = V A.oX1X&XaXpXpX>XsX-X_.gX].L.pXpX-XM.t.L.sXpXpXpX*X@X3Xm.OX@X3X3XpX9.-XuX8.i.8.M.;XoXZ.*.*XoX;XpXpXaXaX<X;XaX",
"> > < < < > > > = A S.XX<X;XuX3X5X=XpX).eXgXeX^.uXuX*X).q.y.pXpXpXuXuX@X;XL.&.h.3X3XpXM._.-Xw.i.i.r.&X<X@X..+X@X*XpXaXaXpX;XoXpX",
"< < < < < = > > > I %XU.$X;X3X2X3X&X=XQ.fXfXgX X].>X*Xm.9.(._.uX5XuXuXpX).W.b.c.=X2X4XM.(.{.Y.u.i.i.J.;X-X=.R.+X*XsXaXaXuX;XZ.;X",
"< < < < < < < < = { oXU.@X$X:X3X3XR.9.P.fXfXfXfX9X_.b.$.0.q.(.-X>XpXuX5XI.[.J.w.L.;X4XK./.[.8X|.]./.y.).4X6.K.OX*XaXpXaX2X*Xv.S.",
"< < < < < < < < * %.XXU.oX;X*XuX3X+X=.~.gXgXkX_.dXeXJ.Q.9.9.`.M.m.5XuX3X-XL.|.Q.J.L.>.K.W.[. XP.~.0.r _ :.6.q.&X;XpXuXpX;X+XN.N.",
"1 1 1 1 1 1 1 > * &.XXS.XX;X&XuX3XR.5.}.gXdXdX7.}.6XQ.(.0.9.L.0.9.1X5XuX-XJ..X].t.Q.=.m.y./.(.7.t.' X r T =.[ M.*X5X5X5X@X+XN.N.",
"1 1 1 1 1 1 1 , = &.XXN.XX&X@XiXrXK.q.t.-.m T   8 w r ` 1.8.~._ @.Y.D.=X#X>.]..X~.|. Xt.m n v O         X w . x V.1X*X*XOX*XN.v.",
"1 1 1 1 1 1 1 < & g.oXj.XX*X@XpXyX9.4 O . o 8 9 u u u 0 4 n ~.=.=.L.9.Q.M.=.0.Q.qXwXgX_.n v T Y p.p.o.X.) z q r D.&X+X+XT.1XN.v.",
"1 1 1 1 7 5 1 < - oXXXf.F.+X@XrXpX9.q r ` =.k.x.x.%XH.s.@.W t.P.Q.~.]..X.X].~.~. XwXeXP.P.).iX%Xx.x.x.p.) g :.9.R.&XOXF.OX5Xv.N.",
"1 1 1 1 < 1 1 1 6 >X+X&.F.+XT.=XpXY.q ` _.kXhXx.%X%X%XH.x.o.fXwX8XeXfXeXqX0XeXeXfXfXeXeXkXkXd.s.%Xx.l.G.z.p.Y.C.1X&XF.Z.OXpXN.N.",
"1 1 1 i 6 6 7 , t rX+X&.T.=Xn.B.pX-X5.w.hXtXa.z.,X<XH.H.x.H.gXeXeXeXgXfXfXfXfXfXgXgXeXfXgXgX&.l.l.k.F.H.z.) R.;X5X&XF.S.;XaXA.N.",
"7 7 p i i i % @ 3 aX#X&.T.:XS.b.rXrX9._.kXkX;.l.$.+.' 0.8XeXeXfXgXgXeXeXeXfXfXfXeXeXeX0X0X0XL.5.=.[ t._.uXrXK.pX&XR.D.D.5XpXV.N.",
"7 p p i p 6 @ @ 0 sX@X%.T.3XS.C.+XrXm.R.gXgXfXE.~._.{.0X X0XeXeXeXfXeXqXeXfXgXfXeXqX0X|..X.X{.{..X.X{.{.[.].L.1X&XF.F.OX4XsXN.N.",
"p 7 i p J N : g G jX&X .F.pXS.+Xh.@X3XR.fXqX0X.X{.{.{..X.X.XqXqXeXfXfXeXfXfXgXeXeXqX0X.X|.{.'.`.(.`.`.[.[.Q.).Y.&XV.F.&XpXsXN.N.",
"J U N M p M N I $.sX-X| C.sXU.;Xf.C.3X;X8X9X[.'.'.'.'.].9X.X0XqXeXeXgXgXfXgXfXfXeXqX.X.X{.[.[.`.`.`.`.[.[.M.' m.R.N.R.1XsXpXN.N.",
"J J N N J J J { V.sX;X| n.sX+XR.Z.Z.@X;XM.{.{.`.(.'.[.{.9X9X0XqXeXgXfXfXeXgXgXfXeXwX X9X{.{.].[.[.`.(.q.8.q.` I.OXh.*X1XsXpXN.N.",
"N N B H J J J | h.aX<X} *.aX>Xb.-XS.OXR.R.Q.'.(.'.[.].{.{.9X9XqXeXeXgXeXgXfXfXfXeXwXwX0X9X9X{.[.[.[.(.(.(.[.6.1XF.F.5XpXsX1Xd.N.",
"M M B B U U N ;.>.sX;X#.$.iXuXF.;XT.*XR.~.w.^.[.[.[.{.9X.X.XwXeXqXfXgXfXfXfXgXgXfXwX0XwX X|..X{.[.[.[.'.`.`.Q.1XF.&X5XsXsX*Xg.N.",
"M B B B J U K f.:.sX;X . .iXpX>X=XS.*X).(.0.Q.{.[.'.{.{..X X0XwXqXfXgXfXeXeXeXfX XwXwXeX0X.X9X9X[.[.'.[.`.`.).g.F.T.pXsXsXOXj.N.",
"a a g M M K | | z sX;X( E 5XaXsX#XB.<XR.`.`.q.Q.].{..X.X9X0XeXeX8X8.u.u.u.W.u.u.6.].fXwX0XeX X|.9X{.{.'.[.(.9.f.Z.&XsXsXsXA.g.N.",
"a a a i G L A h l pX&XO.#.:XsXsXpXC.XX+XY.{.'.!.{.{.9X.X0X0XwXeXeXu.W./.W./.!.!.y.eXeXeX0X0X0X9X9X9X9X[.{.W. .F.F.;XsXaX5XN.g.l.",
"d M s a t a a d 5 1X+X%.%.@XpXaXuXsXZ.+XD.{.{.[.{..X9X0XwXqXeXeXeXwX^./.`.`././. XeXeXeXeXeXeXwX9X9X.X9X9Xt.f.A.S.aXaXpX@XN.g.g.",
"d d d d d M g s t R.+Xj.f.k.4XpX>XpX>XR.+Xw. X X.X9X9X0XwXqXeXwXwXeXeXeXeXeXeXeXeXwXeXeXeX0X0X XqX0X0XqX9X5.A.A.+XuXrXpXS.N.j.a.",
"d d h d d d h d a h.Y.oXg. .1X;XpX-XsXrXc.=.9. X.X.XwXqXwXqXeXeXwXwXeXeXwXeXeXwXeXeXeXeX0XqX0XeXeXeXwX_.M.h.S.F.<XXX3X;XS.A.j.| ",
"C V d h d d V z d #.I.2XB.G +X+XsX3X).uX=Xf.+.w.wXwX0XwXqXeX0X0XeXeXeX0XeXeXqXqXeXwXqX0XeXqXeXwXeXeXeX=.' B.F.OXS.5X+Xj.@XZ.j.L ",
"P K d d l d t @ 2 T Z.4XB.A Z.oXpXsX+XI.kXiXh.$.K.E.wXwXwXeXeXeXeXwXqXqXeXqXqXqXeXwXeXeXwXeXeXeXeXqX>.*.V.F.F.N.;XsXv.f.XXF.%.z ",
"M h l V y 3 X y V ~ c.3XC.D f.F.>XsX1X&XC.7XsXj.O.O.>.E. XeXeXwXeXwXeXqXqXqXeXqXwXeXeX0XwXwXwX|.M.:.#.XX&Xg.S.5XsX;Xv.A.T.@XQ z ",
"l V C d @ X @ K Y Y  .Y.*.P  .F.R.sX-X@X3Xn.b.5Xg.#.d.| _ $._.wXwXeXqXqXqXeXeXwXwXwX0X0X X Xu.8.} O.S.*. .#.5XsXsXh.&X4XZ.<Xz l ",
"Z d y 2 X X Z P Y Y } #.( F ! g.F.jXF.F.uXuXF.f.$X@Xf.d.X.f.{ *.b.}. XwXwXwXwXwXwX X X^.y.y.i.t.} :.#.%.&.*XsXsX;Xg.pX4XZ.F.y S ",
"E C s 3 5 s P Y Y Y ~ Z Z S E &.m.jXV.n.;XuX*XF. .! f.l.#.a.X.o.%.&.1.6.t.].|.|.u.r.3.e.y.y.t.] | O.a.B.U.kXsX;Xg.&XsX5Xv.R.l F ",
"E P E E E P ^ ^ ^ ^ E d s Z F E n.jXn.v.+X5X&XF.&XS.~ o.%.a./ Y { g.<.4.2.<.,.,.3.4.8.i.y.t.y.=./ O.f.U.rXkXsX$.:.sXsXpX .5XR ! ",
"K E E R E E ^ ^ ^ / ~ d d C F G v.sXn.:.OX4X*X&X&XOXo.o.o.O.^ Y Y a.<.4.2.2.,.2.3.4.u.u.i.u.u.1.O.%.#.+XiXkX=X#.b.sXsX4X#.tXW >.",
"R C y 3 D E / E / / P h l V S Z %.uXm...XX;X*XOXOXOXl.o.o./ Y ^ ^ o.,.4.4.4.4.4.y.u././.u.u./.7.o.{ R 7XjXiXh.g.>XsX4X5X$.5X&XT.",
"3 3 3 k S D R R P K D D S S D K R -X+X..F.*X;XOXF.OXF.a.o.l K Y Y Y 2.4.4.2.4.e.u./.u.u.!.!.(.[ u z } jXsXF.f.3XpXaXrXaXR g.jX$.",
"R D D E S S D R D D D S L F L F Z n.;X$.#.*X;XF.F.OXOXN.%.j C H C x e m 2.e.u.u./.u././.!.!.7.w 3 3 ;XrX*X*.T.sXsX3X>X>Xz R uXS.",
"R R R D R F R D D S k l z E E R k  .5X*.W OX*XOXF.F.F.F.f.W Z H A 9 2 @ o r ] ] m r c e c r 2 O 9 ..hXB.f.v.1XsXsXR.pX2Xz ~ ( T.",
"S D R D D D F F R D D R E ~ F z u k sXV.@.f.F.&XF.F.D.OXF.R D D C r + 8 8 w q e r m b e b c 8 8 -.-X;.&.v.T.pXjX2XT.:XI.x ! E { "
};
