/* XPM */
static char *result[] = {
/* columns rows colors chars-per-pixel */
"64 64 240 2 ",
"   c #0B1A2F",
".  c #1C1929",
"X  c #1C1C2C",
"o  c #1D1C32",
"O  c #1B1F38",
"+  c #24172D",
"@  c #2C142E",
"#  c #231C2D",
"$  c #2B1C2E",
"%  c #261633",
"&  c #231C33",
"*  c #2C1C33",
"=  c #251C3A",
"-  c #2C1B3A",
";  c #341C35",
":  c #17202F",
">  c #1C222D",
",  c #162335",
"<  c #1C2333",
"1  c #152B32",
"2  c #25222E",
"3  c #2B232D",
"4  c #39252E",
"5  c #242333",
"6  c #2C2334",
"7  c #282836",
"8  c #24213A",
"9  c #2C2C3A",
"0  c #332434",
"q  c #3D2433",
"w  c #342C36",
"e  c #3C2A35",
"r  c #332539",
"t  c #3C243B",
"y  c #352C3B",
"u  c #3B2B3B",
"i  c #2B353B",
"p  c #35333C",
"a  c #3A353C",
"s  c #35393C",
"d  c #3B3A3F",
"f  c #471D36",
"g  c #531D39",
"h  c #442434",
"j  c #462634",
"k  c #44243C",
"l  c #4B243C",
"z  c #422B3B",
"x  c #4B2B3C",
"c  c #532539",
"v  c #42313C",
"b  c #433D3F",
"n  c #2A473F",
"m  c #34433C",
"M  c #281E40",
"N  c #3B2942",
"B  c #283E43",
"V  c #343343",
"C  c #3D3544",
"Z  c #333A43",
"A  c #3D3C43",
"S  c #353C4B",
"D  c #3D3C4A",
"F  c #4C1F40",
"G  c #462744",
"H  c #422C42",
"J  c #453443",
"K  c #4B3343",
"L  c #443B45",
"P  c #473847",
"I  c #443C4B",
"U  c #4B3C4D",
"Y  c #54364D",
"T  c #543B49",
"R  c #483D54",
"E  c #2D4543",
"W  c #2B4A45",
"Q  c #294748",
"!  c #334747",
"~  c #3C4345",
"^  c #354549",
"/  c #3C444C",
"(  c #3C4B4C",
")  c #3C4552",
"_  c #394A51",
"`  c #395150",
"'  c #424247",
"]  c #44444B",
"[  c #4D444C",
"{  c #434B4D",
"}  c #4C4A4E",
"|  c #54474D",
" . c #43524F",
".. c #454756",
"X. c #4C4353",
"o. c #4D4B51",
"O. c #534454",
"+. c #594656",
"@. c #544B54",
"#. c #5A4D55",
"$. c #544D5A",
"%. c #594E59",
"&. c #4C5355",
"*. c #495658",
"=. c #545355",
"-. c #5B5455",
";. c #585A56",
":. c #55535A",
">. c #5B545B",
",. c #555A5B",
"<. c #5C5B5C",
"1. c #624C58",
"2. c #63565C",
"3. c #69565C",
"4. c #645858",
"5. c #635C5D",
"6. c #576158",
"7. c #5C615E",
"8. c #64625D",
"9. c #69615E",
"0. c #475F63",
"q. c #5B5662",
"w. c #575C63",
"e. c #5D5C62",
"r. c #635C62",
"t. c #675966",
"y. c #6B5C63",
"u. c #725961",
"i. c #5C6262",
"p. c #5B6866",
"a. c #646364",
"s. c #6A6364",
"d. c #6D6B65",
"f. c #64646B",
"g. c #6B656A",
"h. c #666A69",
"j. c #6D6B6C",
"k. c #756869",
"l. c #736D6D",
"z. c #65736D",
"x. c #6D736D",
"c. c #68786E",
"v. c #73726E",
"b. c #79726E",
"n. c #72786E",
"m. c #6D6C73",
"M. c #696A76",
"N. c #746D73",
"B. c #7A6E73",
"V. c #746D7B",
"C. c #7A6A79",
"Z. c #6D7573",
"A. c #657874",
"S. c #6D7A74",
"D. c #6D747A",
"F. c #6D7A7A",
"G. c #747474",
"H. c #7A7474",
"J. c #747975",
"K. c #7A7975",
"L. c #757579",
"P. c #7B757A",
"I. c #757A7A",
"U. c #7B7A7B",
"Y. c #836E73",
"T. c #856E7A",
"R. c #817476",
"E. c #81747B",
"W. c #857879",
"Q. c #827A7C",
"!. c #90797F",
"~. c #6F8079",
"^. c #76817B",
"/. c #82817D",
"(. c #757582",
"). c #747584",
"_. c #7C7483",
"`. c #7C7B82",
"'. c #787C86",
"]. c #816C81",
"[. c #837583",
"{. c #897583",
"}. c #837C83",
"|. c #8A7B85",
" X c #857B8B",
".X c #8B7E8B",
"XX c #997D8C",
"oX c #927F91",
"OX c #788689",
"+X c #7C828D",
"@X c #7A8792",
"#X c #7C9294",
"$X c #848184",
"%X c #84838B",
"&X c #8C838C",
"*X c #898889",
"=X c #8C898D",
"-X c #92858D",
";X c #9B868F",
":X c #938A8D",
">X c #848591",
",X c #8D8492",
"<X c #858C94",
"1X c #8C8B93",
"2X c #8D8C99",
"3X c #938492",
"4X c #9B8594",
"5X c #938B94",
"6X c #998B95",
"7X c #928698",
"8X c #9D869A",
"9X c #948C9A",
"0X c #9A8C9B",
"qX c #8A9395",
"wX c #89959A",
"eX c #939599",
"rX c #94939C",
"tX c #9A929D",
"yX c #A28395",
"uX c #A38698",
"iX c #A38C9C",
"pX c #A0939D",
"aX c #9B8EA0",
"sX c #8B9BA3",
"dX c #9A97A4",
"fX c #949DA3",
"gX c #9C9DAA",
"hX c #A38DA1",
"jX c #A492A3",
"kX c #8DA7AA",
"lX c #95A4AB",
"zX c #9BA3AC",
"xX c #96A8AB",
"cX c #93ADB3",
"vX c #9CABB3",
"bX c #8BB5B4",
"nX c #9AB1B4",
"mX c #A3A5AF",
"MX c #A6A8B4",
"NX c #B1AFBD",
/* pixels */
"5X&Xm...<XfX=X&X=X5X-X&X:XC.I <XgX,X>X3X3X7X7X,X-X[.i @XzX1X&X4X-X1X_.N <XgX,X<X-X=X*X7XoX}.>  XlX1X2X>X1X,X7X7X3X X5 %XlX<X&X4X",
"G.E.%X:.fX'.L.P.P.P.G.N.Q.}.r.zXI.G.U.K.b.G.G.H.L. XX.mXL.P.G.G.H.L..XI zXI.N.I.L.L.H.N.`.&XJ mXI.G.E.H.H.G.G.P.N.5XJ dX'.I.G.H.",
"K.L.g.:.1XL.v.H.L.G.U.J.G.f.$.>XG.v.K.G.G.K.G.K.U.h.L 0XN.P.I.J.P.G.N.L eXI.N.G.L.U.P.K.L.N.0 <XK.v.H.n.J.J.J.J.J.H.e 5XG.U.I.J.",
"J.j.| 5.$XU.H.K.G.G.I.J.j.r.:.9XU.I.G.N.G.P.G.G.n.-.$.-XP.G.v.U.n.j.5.[ %XU.Q.b.G.K.c.U.B.r.' 0XU.G.P.G.G.J.Z.L.G.;.P 5XP.G.G.J.",
"J.v.5.r.&XN.G.G.H.U.v.s.s.4.@..XH.G.P.J.P.J.G.U.l.2.X.=XL.U.G.G.J.l.r.o.5Xx.K.K.G.K.v.d.k.-.A 7XL.G.P.I.J.L.G.W.R.>.A 1XL.U.G.v.",
"Z.N.O.| 3XU.G.G.H.n.h.d.d.@.#.5XH.H.K.G.G.G.x.l.k.2.I 1XL.J.U.H.J.B.@.a 5X}.I.l.G.j.K.9.l.1.q 2XU.v.G.J.v.G.b.k.B.<.V 1X`.N.H.Q.",
"-.@.y P V.`.M.<.=.,.:.<.@.r J V.W.H.N.a.<.a.5.-.:.y r V.>XN.m.g.&.#.y y C. XZ.#.,.:.<.@.=.v @ M./.H.H.g.,.a.s.-.-.y & f.,XP.N.f.",
"q.O.P I X.$.$.w 5 ] q.q.O.I ..) T O.O.V 7 ] $.@.*.] R U +.P . ] w.@.U I U X.*.A X D ,.q.#.A ..R T Y +.I X D $.@.:.D ..O.Y T 2 Z ",
"dX1X9X7X,X5X,XC.] #XlX,X6X,X1X%XU.&X4XN.) @XgX7X0X>X9X-X%X}.$ +XzX1X>X5X3X5X,X_.# @XxX5XuX1X1X4XG.-X6X}.. >XkX7X3X9X7X&X7X}.y V.",
"G.J.G.G.H.Q.P./.e.rXF.v.R.H.G.g.g.U.H.&Xq.gX`.L.B.D.H.R.P.:Xv I.G.K.H.H.U.G.H.5Xz mXF.I.N.U.G.u.r.E.G.qXk gX`.F.H.G.I.Q.G.*X[ l.",
"U.G.G.U.K.v.n.l.q.1XL.G.H.l.s.,Xv.U.G.g.#.6XL.I.K.J.G.K.G.H.e J.I.I.G.H.K.v.v.K.e 5XI.Z.J.G.s.5XJ.I.B.l.u pXF.P.I.G.x.J.l.E.b l.",
"I.D.L.P.G.P.G.;.q.,XP.(.m.B.5XL.K.G.v.-.>.-XG.x.`.J.J.G.P.r.A (.L.L.L.L.D.U.G.>./ aXC.P.H.r.&XF.J.A.!.2.d yXc.b.G.L.I.L.P.a.A J.",
"G.Q.G.G.K.K.j.<.q.&X}.J.S.H.G.L.J.v.l.2.#.,XP.U.G.l.U.U.G.>.{ S.G.U.U.G.x.J.v.5.B 2XP.L.G.R.H.I.P.x.J.e.x 6XR.F.G.v.G.N.H.a.{ z.",
"G.n.d.J.K.G.d.-.<.:Xl.H.n.K.K.G.v.G.B.>.X.>XG.5.G.W.d.n.W.-.m F.K.l.l.K.n.J.K.4.` =XH.J.z.W.H.l.H.U.G.<.0 aXT.7.K.W.v.K.K.<.m c.",
"*XH.d.j.r.>.>.e p `.5XW.B.G.,.r.y.5.:.w X. X,XJ.=.r.8.,.2.w 2 `.:XN.g.m.5.<.t.q X _.-XH.U.N.s.r.2.r.q.k 7 _.,XP.=.8.<.r.2.a 3 z.",
"C I 6 & = 6 N - 8 8 N k t & 5 * h e D 2 + * p / ) . 5 5 G - O M a I y * & & N ; , - G G q 6 X 8 x q ! $ @ , F E ) < & * N - + = ",
"5XeX*Xm.D >XzXqX9X7X5X5X-XN.D +XzXrX2X9X5X7X6X5X5Xj.9 '.MXqX5X6X1X4X1XM.r _.cX1X5X,X1X4X6XD.2 (.vXaX7X9X1X5XeX-X6XD.6 _.cX6X1X6X",
"H.G.}.}.q.gX'.Z.P.P.P.U.}.`.r.gXL.L.L.P.H.H.P.P.H.6X] MXI.I.V.P.P.G.$X3XI MX`.L.`.G.E.R.S.eXl vXI.Z.V.P.P.P.P.P.N.pXu zX`.P.F.T.",
"H.l.H.m.$.9XN.G.U.L.G.G.G.j.$.,XI.J.U.G.P.G.G.K.B.B.U 9XL.G.I.G.U.H.G.N.J 7XL.G.L.G.I.H.G.L.e 7XJ.H.U.H.I.G.G.G.R.G.x 1XP.I.L.L.",
"L.U.G.-.%.&XP.P.G.G.J.K.Z.r.:.5XG.G.J.G.G.G.G.J.K.-.L &XL.I.L.I.J.R.H.e.v ,XI.K.G.P.S.J.}.,.~ uXZ.J.H.K.H.H.J.J.W.<.e 3X`.I.G.).",
"G.n.l.=.r.5XP.G.P.G.J.J.h.#.@.3XG.P.J.G.I.G.L.L.x.:.$.5XG.U.v.G.v.c.v.4.{ 5XR.J.U.G.G.J.z.4.e 9XG.U.U.G.U.L.L.L.c.2.~ 6XH.U.S.G.",
"K.G.G.-.>.5Xm.J.v.G.n.K.G.<.<.3XP.G.L.L.L.I.P.G.J.<.=.*XU.v.U.H.U.J.G.r.] ,XP.x.G.x.b.J.G.k.Z 5XH.G.G.L.P.P.L.J.I.5.{ -X`.l.U.P.",
"G.n.b.#.#.&XH.J.G.K.H.H.H.#.q.>XU.G.G.J.K.G.K.H.l.2.L &XU.s.j.K.H.l.G.5.a tXN.U.K.W.G.n.T.>._ oX`.G.L.I.G.H.K.J.G.r.w 3X`.6.Y.v.",
"4.5.-.w P [.1Xv.5.5.4.5.-.w L '.&XP.G.l.8.<.5.4.3.z e [.1Xx.<.5.2.i.3.q 9 N.iXA.;.<.3.7.5.e > (.-XU.J.G.9.4.4.;.3.z $ L.;XJ.9.<.",
"h l t X # f ; < 8 8 Q S N @ , 7 d z u X - < Q E t o < & ) w q * w c k 6 X * G > = X _ / k 8 = o ! u l & 1 - Q / r & &   ] y u * ",
"iX3X3X'.9X0X7XM.D @XcX2X3XjX,X9XeXuX-XM.S OXcX0XyXjX7X8X7XiXyX4X0XXX>X(.0X7X8XL.o ).cX1X1XhX,XaX7X,XaXL.= ).cX5XuXjX7X9X0XuX4X0X",
"P.P.L.g.m.I.%X}.t.lXOXH.P.N.E.L.D.l.W.,Xr.lXOXj.N.L.(.G.J.G.H.I.B.}.L.g.m.I.`.5XN xXI.G.'.B._.H.R.`.x.7Xj MXOXG.G.L.L.L.L.G.G.P.",
"G.I.j.G.a.x.G.k.%.*Xv.H.Z.J.P.v.I.G.K.d.| &XG.I.U.I.L.U.K.H.G.F.G.U.Z.v.a.G.j.R.f eXR.J.v.A.G.I.I.v.U.G.h 5XC.S.K.L.U.U.K.K.Z.F.",
"I.G.b.v.K.G.G.4.q..Xb.J.K.J.G.K.R.G.z.;.<.5XB.P.n.G.G.G.v.K.G.G.H.x.n.J.J.R.b.5.I 4XJ.H.S.K.G.G.U.l.R.6.W 6XH.H.G.G.J.G.v.K.n.J.",
"L.K.H.K.v.H.H.>.0.0XG.D.U.l.G.W.H.K.l.<.*.*XP.H.J.H.Z.I.H.v.I.P.I.v.Y.U.z.K.K.3.Q 4XD.x.K.G.H.H.x.U.H.t.E aXG.G.J.J.D.U.G.l.U.P.",
"N.G.p.G.4.y.:.y S P.4XG.D.U.a.h.<.a.#.q D '.5XF.H.P.a.I.y.3.5.t.I.S.s.H.;.e.<.z , V.iXD.G.D.r.J.t.;.f.q = V.rX~.v.U.i.L.4.t.t.2.",
"K ! E b q p D # = * l v n ! ~ Q f a Z # 8 & J Z E ~ E Q A i ^ 2 c Q W ~ x f / > o 6 f 4 ` ~ n n c q ^ & * < h m ! E E E ( i A 5 ",
"6X&Xg.[ @XgX5X:X9X9X1X6XoXL.Z %XvX2X0X0X0X0X9X,X6XL.# '.cX1XpX-X3X5XD.5 _.bX9X5XyXrX<X9X4X].# (.cXwX7X0X0X0X9X7X6XP.D M.xXeXeX4X",
"T.+X$X%.kX+XE.J.G.W.H.G.`.W.>.zXF.J.G.U.N.I.P.K.{.#Xk MX+XL.N.[.P.U.1Xg cX{.L.G.b.S.Q.H.D.0Xh nXI.G.P.H.v.G.P.P.U.3X$.aX>XD.N.P.",
"B.L.g.#.<XL.B.G.U.G.G.J.U.l.o.<XG.K.J.J.c.J.v.B.Z.L.t uXZ.I.J.G.B.P.A.g tXI.B.L.U.S.b.B.~.E.4 qXH.H.U.J.x.J.v.H.G.`.U &XU.U.OXm.",
"I.N.e.r..XL.J.H.H.j.'.U.g.e.:.7XH.B.P.m.U.P.P.P.H.t.~ 3XU.l.G.~.K.J.g.n -XA.H.K.D.U.H.H.H.w./ 8XC.H.G.G.I.I.L.P.n.5.| }.P.G.G.J.",
"~.k.>.-.;XK.J.v.E.U.J.j.9.<.-.3XL.H.}.P.U.L.G.U.b.;.x <XG.J.n.l.G.G.1.W eXI.Z.v.S.U.U.n.3.r.Z yXI.I.P.L.L.L.G.P.R.5.] *XG./.G.G.",
"n.H.2.#.=XG.v.I.G.v.d.8.v.1.+.5XS.x.v.H.J.J.x.J.Y.u.m qXE.H.U.U.K.P.u.t iXN.Q.G.G.l.k.8.n.4.e rXJ.x.v.G.H.K.n.H.b.s.' %XI.H.H.U.",
"r.$.r I `.,XL.e.7.a.8.6.-.e J '.*XQ.H.N.f.j.s.3.p.k : C.4XP.C.L.i.:.g 5 _.XX`.,.a.e.a.;.5.e 0 D.:XW.P.N.g.j.s.3.r.d # V.0XE.H.L.",
"A k % < $ V Z & 5 5 A P N o < M l t t & . * k f E o 5 & G N # : ^ k 5 o O H Q 2 & & Q ) k *   M l h u 6 X 5 u k s 9 o * t N 5 X ",
"MX2X9XaX,X0X7XM.S +XvX5X0X3XtX,XP.5X4XD.5 ].bX0X8X9X7X5X7XP.$ L.vX8X2X2XuX9X<X{.X '.MX7XiX0X,X0XE.,XuXL.7 _.kXrX7XtX0X,X0X[.C m.",
"J.I.G.H.E.P.H.$Xf.fXF.G.H.Q.j.r.g.H.R.1XL vX_.L.H.J.U.R.I.-Xe L.F.Q.G.I.H.K.G.5Xz MXD.I.G.G.P.3.e.G.R.rXL fX%XL.K.G.G.U.Q.-X-.d.",
"G.G.v.K.K.v.v.v.O.:XU.G.K.l.s.1XZ.Q.N.J.v iXA.U.H.A.K.H.Z.U.4 I.G.J.v.K.v.J.v.K.e -XU.z.J.K.5.:XL.I.l.R.V 9XI.G.G.J.G.J.G.H.[ d.",
"L.Z.G.G.G.K.G.;.q.3XP.D.D.k.5XL.J.J.K.2.~ XXJ.G.I.G.G.J.P.s.d L.G.J.P.N.I.I.H.<.) 7XP.L.H.y.&XF.J.J.U.2.' XX^.W.G.P.I.D.P.a.' N.",
"G.U.U.I.P.G.N.;.w.&XU.F.S.Q.N.L.U.j.K.5.K tXT.J.G.G.U.J.B.=.` D.G.U.U.J.L.G.G.r.B fXH.L.P.N.Q.F.J.G.J.>.K  XT.z.H.v.G.G.U.h.&.h.",
"H.v.x.K.J.K.G.-.,.*Xl.K.n.b.H.Q.v.R.I.,.u 5XH.6.W.K.n.k.Q.8.s ~.K.H.x.U.v.U.H.4.) =XP.J.J.G.H.B.G.H.F.r.u 7X-X8.n.K.K.K.b.<.m S.",
"=XH.s.g.e.5.2.0 D `.3XY.H.G.,.>.u.a.&.k i _.6XI.&.<.a.<.5.e # (.:XJ.s.B.,.e.3.e X L.7XB.Q.x.r.t.3.2.w.y 5 T.1XL.<.i.;.2.t.I 3 h.",
"u I 9 # & * r ; - * t G t > < 6 j 4 D # X X k ! ) & . & G % < = H D y @ < & G * & 8 u k k > < # q z / X * O t / ) < & * t ; % 8 ",
"5X5X*Xm.D %XzXwX5X5X0X7X-XN.V @XmXaX2X9X9X5X0X5XeXN.& (.vX5XqX4X5X4X7XD.o _.cX6X7XtX5X4X6XD.6 (.mXrX2X9X7X7X6X5X5XU.D D.fXeXeX-X",
"P.P.}.%Xe.gX`.L.L.G.P.H.}.}.q.gXI.G.D.H.C.H.P.H.B.tX0 MX(.L.L.E.P.H.P.tXr NXL.I.U.N.P.W.z.5Xl vX`.J.V.P.H.H.P.P.P.&X$.rX>XD.L.U.",
"H.N.H.N.%.9XN.P.H.G.P.G.v.j.$.7XG.I.H.U.L.G.G.G.R.L.G rXC.I.J.G.S.H.l.P.l rXH.D.P.G.J.H.L.L.w 9XI.J.U.H.H.G.G.G.K.P.I 9XU.G.G.H.",
"U.H.G.-.$.&XP.U.G.v.U.J.v.8.@.5XG.J.J.G.G.J.J.U.H.<.z &XH.G.U.J.F.E.U.e.h 1XG.U.G.U.F.v.}.<.' 4Xv.J.G.G.G.J.J.I.U.r.L }.P.U.G.P.",
"D.J.l.=.5.-XL.N.P.L.L.J.j.=.@.,XL.U.J.G.L.L.L.L.n.<.~ pXP.G.n.N.v.S.n.5.s tXH.v.U.J.K.x.x.r.e 5XJ.L.K.G.L.I.L.L.J.<.| .X[.G.G.S.",
"J.v.v.;.>.5XN.I.H.L.L.J.G.<.r.9XP.G.G.L.J.L.J.G.J.5.~ 3XG.v.U.U.R.J.K.5.! 5XI.H.G.j.U.J.H.g.a 0XL.G.L.G.H.L.J.G.J.a.' &X$Xx.I.K.",
"G.G.H.-.-.=XP.I.G.U.H.H.n.=.$.,XU.H.G.U.G.G.K.H.x.u.w 3XP.i.E.H.U.l.Q.r.p 5XL.Q.H.K.K.n.Y.-.Q 8XU.G.P.P.G.H.H.K.v.s.L [.Q.a.l.K.",
"a.s.4.z [ _.=Xx.9.5.4.9.5.a A  X&XP.G.v.a.5.9.9.s.z $  X6Xz.y.a.5.a.3.x ; L.yXA.7.8.u.7.a.L 5 (.*XP.H.G.s.8.9.5.5.L e N.5XP.9.y.",
"x K H # r P X.D y Z _ I L 7 o ..&.T T a V r _ / P * # C +.U P u J K K r . P R C V 9 ) ( H * 9 V :.T | p C 9 ^ ( U * * C X.O.K z ",
"-X.X|._. X>X_.r.V OXwX%X[.>X X.X%X{.Q.m.# ).lX%X.X.X>X*X&X.X&X}.-X|..Xf.>X,X.XM.+ A.kX&X3XoX_.3X`.oX|.g.0 D.sX1X3X.X&X>X&X X|.&X",
"P.E.P.N.L.`.%X}.w.sX+X}.W.Q._.[.`.&X`.,XP sX%X`.E.P.`.(.P.P.}./.P.|.Q.a.L.Q.[.=XG cX@XR.P.I.}.P.}.`.`.7XJ sX#X_.P.`.`.U.U.U.U.Q.",
"P.G.G.j.g.G.U.l.q.7XL.G.G.G.I.I.L.G.G.P.J fXL.G.U.G.J.J.H.I.G.G.H.H.G.G.a.K.G.Q.k 5XG.H.G.I.U.G.G.J.L.P.J 2XI.P.P.P.G.J.G.J.U.x.",
"I.K.G.J.G.G.v.5.:.6XP.H.J.G.J.x.K.K.H.s.' 4XG.K.H.K.K.G.v.H.K.G.H.x.J.K.v.K.K.9.] 8XH.^.J.H.K.n.K.K.U.a.~ &XP.U.G.U.G.K.J.G.K.G.",
"G.I.G.U.v.G.G.5.w. XH.L.U.K.v.U.l.J.b.>.` yXN.J.H.G.v.J.H.N.H.J.G.J.J.v.G.l.G.5.Q pXB.z.G.l.W.b.K.l.v.e.{ 3X!.z.G.G.v.J.G.l.K.K.",
"G.J.a.x.a.d.r.u _ }.3XU.S.N.j.N.k.5.r.P 7  X5XA.K.D.i.I.j.a.a.r.B.I.h.G.g.f.r.P 1 _.6XG.I.U.s.J.y.s.j.L 5 _.-XI.I.I.h.m.j.a.s.r.",
"] o.} o.d L I 3 5 U +.'  .*.{  .K ~ / 6 6 ) +.&. .,.~ &.] A ] s | &.b #.b a o.0 & P 1.[ ,.` (  .K Z { ; & D $.=.{ &.{ o.} ~ ] d "
};
